<?xml version="1.0" encoding="UTF-8" standalone="no"?><!DOCTYPE svg PUBLIC "-//W3C//DTD SVG 1.1//EN" "http://www.w3.org/Graphics/SVG/1.1/DTD/svg11.dtd"><svg width="100%" height="100%" viewBox="0 0 60 60" version="1.1" xmlns="http://www.w3.org/2000/svg" xmlns:xlink="http://www.w3.org/1999/xlink" xml:space="preserve" style="fill-rule:evenodd;clip-rule:evenodd;stroke-linejoin:round;stroke-miterlimit:1.41421;"><g id="Layer_3"><path d="M16.894,25.059l2.523,0l-8.245,-21.052l-2.05,0l-8.289,21.052l2.466,0l2.582,-6.668l8.403,0l2.61,6.668Zm-10.152,-8.862l2.465,-6.496c0.393,-1.098 0.694,-2.108 0.904,-3.026c0.335,1.196 0.661,2.204 0.976,3.026l2.437,6.496l-6.782,0Z" style="fill:#fff;fill-rule:nonzero;"/><path d="M33.801,23.482c1.267,-1.052 1.899,-2.514 1.899,-4.389c0,-2.8 -1.592,-4.474 -4.775,-5.018l0,-0.144c1.328,-0.238 2.341,-0.762 3.032,-1.57c0.694,-0.808 1.04,-1.833 1.04,-3.075c0,-1.798 -0.621,-3.112 -1.863,-3.943c-1.243,-0.832 -3.255,-1.249 -6.037,-1.249l-5.922,0l0,20.966l7.312,0c2.275,-0.001 4.045,-0.527 5.314,-1.578Zm-10.19,-17.281l3.585,0c1.836,0 3.174,0.261 4.015,0.781c0.841,0.522 1.263,1.371 1.263,2.546c0,1.282 -0.377,2.192 -1.132,2.732c-0.756,0.54 -1.995,0.811 -3.715,0.811l-4.015,0l0,-6.87l-0.001,0Zm0,16.779l0,-7.844l4.173,0c1.788,0 3.119,0.306 3.993,0.917c0.876,0.612 1.312,1.569 1.312,2.869c0,1.396 -0.428,2.421 -1.282,3.075c-0.856,0.656 -2.13,0.983 -3.822,0.983l-4.374,0Z" style="fill:#fff;fill-rule:nonzero;"/><path d="M47.652,25.347c0.452,0 0.885,-0.016 1.308,-0.041l2.534,-2.534c-1.263,0.27 -2.42,0.408 -3.47,0.408c-2.381,0 -4.214,-0.747 -5.5,-2.243c-1.286,-1.497 -1.928,-3.616 -1.928,-6.36c0,-2.668 0.667,-4.77 2,-6.303c1.332,-1.533 3.152,-2.302 5.456,-2.302c1.586,0 3.175,0.373 4.76,1.119l1.034,-2.094c-1.644,-0.803 -3.566,-1.205 -5.765,-1.205c-2.066,0 -3.861,0.44 -5.384,1.32c-1.525,0.88 -2.692,2.133 -3.5,3.757c-0.809,1.626 -1.212,3.519 -1.212,5.678c0,3.453 0.84,6.115 2.518,7.989c1.678,1.873 4.06,2.811 7.149,2.811Z" style="fill:#fff;fill-rule:nonzero;"/><path d="M58.757,23.903l-2.725,-2.725l-0.409,-0.41l-0.41,0.41l-27.943,27.945l-11.855,-11.857l-0.41,-0.409l-0.41,0.409l-2.725,2.724l-0.408,0.409l0.408,0.41l14.99,14.988l0.41,0.41l0.409,-0.41l31.078,-31.076l0.41,-0.409l-0.41,-0.41Z" style="fill:#fff;fill-rule:nonzero;"/></g></svg>