<?xml version="1.0" encoding="utf-8"?>
<!-- Generator: Adobe Illustrator 22.1.0, SVG Export Plug-In . SVG Version: 6.00 Build 0)  -->
<svg version="1.1" id="Layer_1" xmlns="http://www.w3.org/2000/svg" xmlns:xlink="http://www.w3.org/1999/xlink" x="0px" y="0px"
	 viewBox="0 0 141 24" style="enable-background:new 0 0 141 24;" xml:space="preserve">
<style type="text/css">
	.st0{fill:#240F6E;}
	.st1{fill:#00A4D9;}
</style>
<g id="Layer_2_1_">
	<g id="XMLID_247_">
		<g id="XMLID_249_">
			<rect id="XMLID_252_" x="0.6" y="3.3" class="st0" width="4.2" height="15.3"/>
			<g id="XMLID_250_">
				<polygon id="XMLID_251_" class="st1" points="16.1,18.5 11.2,10.9 9.9,10.9 14.3,3.3 11,3.3 6.6,10.9 11.4,18.5 				"/>
			</g>
		</g>
		<polygon id="XMLID_248_" class="st0" points="25.9,11 21.1,11 21.1,6.1 18.4,6.1 18.4,11 13,11 14.8,13.7 18.4,13.7 18.4,18.5 
			21.1,18.5 21.1,13.7 25.9,13.7 		"/>
	</g>
	<g id="XMLID_125_">
		<path id="XMLID_141_" class="st1" d="M39.5,18.3c-0.6,0.2-1.3,0.4-2.1,0.4c-1.9,0-3.4-0.7-4.6-2.1c-1.1-1.3-1.7-3.2-1.7-5.4
			c0-1.9,0.3-3.4,0.9-4.7c0.6-1.1,1.3-2,2.2-2.6s2-0.9,3.1-0.9c0.7,0,1.3,0.1,2,0.3c0.6,0.2,1.1,0.5,1.6,0.9l-1.2,2.1
			c-0.7-0.6-1.4-0.8-2.2-0.8c-0.5,0-0.9,0.1-1.3,0.4c-0.4,0.3-0.8,0.6-1,0.9c-0.5,0.8-0.8,2.2-0.8,3.9c0,1,0.1,1.9,0.2,2.5
			c0.1,0.6,0.3,1.1,0.5,1.6c0.6,1.1,1.4,1.7,2.7,1.7c0.4,0,0.8-0.1,1.2-0.2c0.4-0.2,0.8-0.4,1.2-0.8l1.3,1.9
			C40.7,17.7,40.1,18.1,39.5,18.3z"/>
		<path id="XMLID_143_" class="st1" d="M49.9,15.3c-0.2,0.7-0.5,1.3-1,1.9c-0.4,0.5-0.8,0.9-1.4,1.1c-0.5,0.3-1.2,0.4-2,0.4
			c-0.7,0-1.3-0.2-1.9-0.4c-0.5-0.3-1-0.7-1.4-1.1c-0.4-0.5-0.7-1.1-0.9-1.8S41,13.8,41,12.9c0-0.9,0.1-1.7,0.3-2.4s0.5-1.3,0.9-1.9
			c0.4-0.5,0.9-0.9,1.4-1.2C44.2,7.1,44.8,7,45.5,7c1.4,0,2.6,0.6,3.5,1.7c0.4,0.5,0.7,1.1,0.9,1.8c0.2,0.6,0.3,1.4,0.3,2.3
			C50.2,13.8,50.1,14.6,49.9,15.3z M46.8,9.8c-0.3-0.4-0.7-0.6-1.1-0.6c-0.3,0-0.6,0.1-0.8,0.3c-0.3,0.2-0.4,0.5-0.5,0.8
			s-0.2,0.6-0.2,1c-0.2,0.5-0.2,1-0.2,1.5c0,1.2,0.1,2.2,0.4,2.8c0.1,0.3,0.3,0.5,0.6,0.7s0.5,0.2,0.8,0.2c0.6,0,1-0.3,1.3-0.9
			s0.4-1.6,0.4-2.8C47.3,11.3,47.1,10.3,46.8,9.8z"/>
		<path id="XMLID_146_" class="st1" d="M57.7,17.6c-0.7,0.7-1.6,1.1-2.7,1.1c-0.7,0-1.3-0.2-1.9-0.5c-0.6-0.4-0.9-0.8-1.1-1.3
			c-0.1-0.3-0.2-0.5-0.2-0.9c-0.1-0.4-0.1-0.8-0.1-1.4v-7L54.3,7v7.1c0,0.5,0,0.9,0.1,1.2s0.1,0.5,0.2,0.7c0.1,0.2,0.2,0.3,0.4,0.4
			s0.4,0.2,0.6,0.2c0.2,0,0.3-0.1,0.5-0.1c0.2-0.1,0.4-0.2,0.5-0.3s0.3-0.2,0.4-0.4c0.1-0.2,0.2-0.3,0.3-0.4V7.6L59.7,7v8.5
			c0,0.4,0.1,0.7,0.2,1.1c0.1,0.4,0.3,0.7,0.5,0.9l-1.9,1.2C58.1,18.4,57.9,18.1,57.7,17.6z"/>
		<path id="XMLID_148_" class="st1" d="M66.4,9.6c-0.6,0-1.1,0.3-1.7,0.9v7.9H62V11c0-0.8-0.1-1.4-0.1-2s-0.2-1-0.3-1.3L64.1,7
			c0.3,0.5,0.4,1,0.4,1.6c0.3-0.4,0.6-0.8,1-1.1C65.9,7.2,66.3,7,66.8,7c0.2,0,0.4,0,0.5,0.1s0.3,0.1,0.5,0.2l-0.7,2.6
			C66.9,9.7,66.6,9.6,66.4,9.6z"/>
		<path id="XMLID_150_" class="st1" d="M75.6,16.4c-0.2,0.5-0.5,0.9-0.9,1.2c-0.4,0.4-0.8,0.6-1.4,0.8c-0.5,0.2-1.1,0.3-1.8,0.3
			c-1.2,0-2.6-0.4-4.1-1.3l1-2.1c0.2,0.2,0.4,0.3,0.7,0.4c0.3,0.2,0.6,0.3,0.9,0.4c0.3,0.1,0.6,0.2,0.9,0.3c0.3,0.1,0.6,0.1,0.9,0.1
			c0.4,0,0.7-0.1,1-0.4c0.3-0.3,0.4-0.5,0.4-0.9s-0.1-0.7-0.4-0.9s-0.7-0.4-1.2-0.5l-1.2-0.3c-0.4-0.1-0.7-0.2-1-0.4
			s-0.6-0.5-0.8-0.7c-0.2-0.3-0.3-0.6-0.4-0.9C68.1,11.3,68,11,68,10.6c0-0.5,0.1-1,0.3-1.4c0.2-0.5,0.5-0.8,0.8-1.1
			c0.4-0.3,0.8-0.6,1.2-0.7c0.5-0.2,1-0.3,1.6-0.3c0.8,0,1.5,0.1,2.1,0.3c0.6,0.2,1.1,0.5,1.6,0.7l-0.9,2c-0.5-0.3-1-0.5-1.3-0.6
			c-0.4-0.1-0.8-0.2-1.2-0.2s-0.7,0.1-0.9,0.3c-0.3,0.2-0.4,0.5-0.4,0.8s0.1,0.5,0.3,0.7c0.2,0.2,0.5,0.3,1,0.5l1.2,0.4
			c0.6,0.2,1.1,0.4,1.3,0.6c0.3,0.2,0.5,0.4,0.7,0.7c0.4,0.5,0.6,1.1,0.6,1.9C75.9,15.5,75.8,16,75.6,16.4z"/>
		<path id="XMLID_154_" class="st1" d="M79.7,13.8c0,0.9,0.2,1.6,0.6,2c0.4,0.5,0.9,0.7,1.6,0.7c0.9,0,1.8-0.4,2.6-1.1l1,1.8
			c-1.2,1-2.5,1.6-3.9,1.6c-0.7,0-1.4-0.2-2-0.4c-0.6-0.3-1.1-0.7-1.5-1.1c-0.4-0.5-0.7-1.1-1-1.8c-0.2-0.7-0.4-1.5-0.4-2.4
			c0-1,0.1-1.9,0.3-2.5c0.2-0.7,0.5-1.3,1-1.9c0.4-0.5,0.9-0.9,1.4-1.1s1.1-0.4,1.8-0.4c0.6,0,1.1,0.1,1.7,0.3
			c0.5,0.2,0.9,0.5,1.3,0.9c0.5,0.5,0.8,1.2,1,2s0.3,1.8,0.3,2.9V14h-5.8V13.8L79.7,13.8z M82.8,10.5c-0.1-0.3-0.2-0.5-0.3-0.7
			c-0.3-0.4-0.7-0.6-1.2-0.6s-0.9,0.2-1.2,0.6c-0.3,0.4-0.4,1-0.4,1.7v0.1h3.2v-0.1C82.8,11,82.8,10.7,82.8,10.5z"/>
		<path id="XMLID_159_" class="st1" d="M100.6,15.7c-0.2,0.5-0.4,0.9-0.7,1.3s-0.7,0.7-1.1,0.9c-0.5,0.3-1,0.4-1.6,0.4
			c-0.2,0-0.5,0-0.8,0.1c-0.3,0-0.6,0-1,0H91V3.3h4.7c0.4,0,0.8,0,1.1,0.1c0.3,0.1,0.6,0.1,0.9,0.2C98,3.7,98.2,3.8,98.4,4
			c0.2,0.2,0.4,0.3,0.7,0.5c0.8,0.7,1.1,1.6,1.1,2.7c0,1-0.3,1.9-0.9,2.5c-0.2,0.2-0.4,0.4-0.6,0.5s-0.4,0.2-0.7,0.3
			c0.9,0.3,1.6,0.7,2.1,1.3s0.7,1.4,0.7,2.4C100.8,14.7,100.8,15.2,100.6,15.7z M97.1,6.7c-0.2-0.3-0.3-0.5-0.6-0.6
			C96.4,6,96.2,6,96.1,5.9s-0.4-0.1-0.7-0.1h-1.6v3.5h1.7c0.3,0,0.6,0,0.8-0.1s0.3-0.1,0.4-0.2c0.2,0,0.3-0.2,0.5-0.5
			s0.2-0.6,0.2-0.9C97.3,7.3,97.2,7,97.1,6.7z M97.3,12.6c-0.2-0.4-0.4-0.6-0.7-0.7c-0.2-0.1-0.3-0.1-0.5-0.1s-0.4,0-0.6,0h-1.8v4.1
			h1.8c0.3,0,0.6,0,0.8-0.1s0.4-0.2,0.5-0.3c0.2-0.2,0.4-0.4,0.5-0.7c0.2-0.3,0.2-0.7,0.2-1C97.7,13.3,97.6,13,97.3,12.6z"/>
		<path id="XMLID_166_" class="st1" d="M110.7,15.3c-0.2,0.7-0.5,1.3-1,1.9c-0.4,0.5-0.8,0.9-1.4,1.1c-0.6,0.3-1.2,0.4-2,0.4
			c-0.7,0-1.3-0.2-1.9-0.4c-0.6-0.3-1-0.7-1.4-1.1c-0.4-0.5-0.7-1.1-0.9-1.8s-0.3-1.5-0.3-2.4c0-0.9,0.1-1.7,0.3-2.4
			c0.2-0.7,0.5-1.3,0.9-1.9c0.4-0.5,0.9-0.9,1.4-1.2s1.2-0.4,1.9-0.4c1.4,0,2.6,0.6,3.5,1.7c0.4,0.5,0.7,1.1,0.9,1.8
			c0.2,0.6,0.3,1.4,0.3,2.3C111,13.8,110.9,14.6,110.7,15.3z M107.6,9.8c-0.3-0.4-0.7-0.6-1.1-0.6c-0.3,0-0.6,0.1-0.8,0.3
			c-0.3,0.2-0.4,0.5-0.5,0.8s-0.2,0.6-0.2,1c-0.1,0.4-0.1,0.9-0.1,1.4c0,1.2,0.1,2.2,0.4,2.8c0.1,0.3,0.3,0.5,0.6,0.7
			c0.3,0.2,0.5,0.2,0.8,0.2c0.6,0,1-0.3,1.3-0.9s0.4-1.6,0.4-2.8C108.1,11.3,107.9,10.3,107.6,9.8z"/>
		<path id="XMLID_171_" class="st1" d="M120.9,15.3c-0.2,0.7-0.5,1.3-1,1.9c-0.4,0.5-0.8,0.9-1.4,1.1c-0.5,0.3-1.2,0.4-2,0.4
			c-0.7,0-1.3-0.2-1.9-0.4c-0.5-0.3-1-0.7-1.4-1.1c-0.4-0.5-0.7-1.1-0.9-1.8S112,13.9,112,13c0-0.9,0.1-1.7,0.3-2.4
			c0.2-0.7,0.5-1.3,0.9-1.9c0.4-0.5,0.9-0.9,1.4-1.2c0.6-0.3,1.2-0.4,1.9-0.4c1.4,0,2.6,0.6,3.5,1.7c0.4,0.5,0.7,1.1,0.9,1.8
			c0.2,0.6,0.3,1.4,0.3,2.3C121.2,13.8,121.1,14.6,120.9,15.3z M117.7,9.8c-0.3-0.4-0.7-0.6-1.1-0.6c-0.3,0-0.6,0.1-0.8,0.3
			c-0.3,0.2-0.4,0.5-0.5,0.8s-0.2,0.6-0.2,1c-0.1,0.4-0.1,0.9-0.1,1.4c0,1.2,0.1,2.2,0.4,2.8c0.1,0.3,0.3,0.5,0.6,0.7
			c0.3,0.2,0.5,0.2,0.8,0.2c0.6,0,1-0.3,1.3-0.9s0.4-1.6,0.4-2.8C118.3,11.3,118.1,10.3,117.7,9.8z"/>
		<path id="XMLID_176_" class="st1" d="M122.8,5.8c0-0.5,0-0.9-0.1-1.4c0-0.4-0.1-0.9-0.2-1.5l2.7-0.7c0.1,0.4,0.1,0.9,0.2,1.6
			c0,0.6,0.1,1.3,0.1,2v12.5h-2.7V5.8L122.8,5.8z M125.5,12.1l2.6-4.8h3.2L128,12l4,6.5h-3L125.5,12.1z"/>
		<path id="XMLID_181_" class="st1" d="M139.7,16.4c-0.2,0.5-0.5,0.9-0.9,1.2c-0.4,0.4-0.8,0.6-1.4,0.8c-0.5,0.2-1.1,0.3-1.8,0.3
			c-1.2,0-2.6-0.4-4.1-1.3l1-2.1c0.2,0.2,0.4,0.3,0.7,0.4c0.3,0.2,0.6,0.3,0.9,0.4c0.3,0.1,0.6,0.2,0.9,0.3c0.3,0.1,0.6,0.1,0.9,0.1
			c0.4,0,0.7-0.1,1-0.4c0.3-0.3,0.4-0.5,0.4-0.9s-0.1-0.7-0.4-0.9c-0.3-0.2-0.7-0.4-1.2-0.5l-1.2-0.3c-0.4-0.1-0.7-0.2-1-0.4
			c-0.4-0.2-0.6-0.5-0.8-0.7s-0.3-0.6-0.4-0.9c-0.1-0.4-0.2-0.7-0.2-1.1c0-0.5,0.1-1,0.3-1.4c0.2-0.5,0.5-0.8,0.8-1.1
			c0.3-0.3,0.8-0.6,1.2-0.7c0.5-0.2,1-0.3,1.6-0.3c0.8,0,1.5,0.1,2.1,0.3c0.6,0.2,1.1,0.5,1.6,0.7l-0.9,2c-0.5-0.3-1-0.5-1.3-0.6
			c-0.4-0.1-0.8-0.2-1.2-0.2s-0.7,0.1-0.9,0.3s-0.4,0.5-0.4,0.8s0.1,0.5,0.3,0.7s0.5,0.3,1,0.5l1.2,0.4c0.6,0.2,1.1,0.4,1.3,0.6
			c0.3,0.2,0.5,0.4,0.7,0.7c0.4,0.5,0.6,1.1,0.6,1.9C140.1,15.5,139.9,16,139.7,16.4z"/>
	</g>
</g>
</svg>
