<?xml version="1.0" encoding="utf-8"?>
<!-- Generator: Adobe Illustrator 22.1.0, SVG Export Plug-In . SVG Version: 6.00 Build 0)  -->
<svg version="1.1" id="Layer_1" xmlns="http://www.w3.org/2000/svg" xmlns:xlink="http://www.w3.org/1999/xlink" x="0px" y="0px"
	 viewBox="0 0 150 24" style="enable-background:new 0 0 150 24;" xml:space="preserve">
<style type="text/css">
	.st0{fill:#240F6E;}
	.st1{fill:#00A4D9;}
</style>
<g id="Layer_4">
	<g id="XMLID_261_">
		<g id="XMLID_263_">
			<rect id="XMLID_266_" x="0.6" y="3.3" class="st0" width="4.2" height="15.3"/>
			<g id="XMLID_264_">
				<polygon id="XMLID_265_" class="st1" points="16.1,18.5 11.2,10.9 9.9,10.9 14.3,3.3 11,3.3 6.6,10.9 11.4,18.5 				"/>
			</g>
		</g>
		<polygon id="XMLID_262_" class="st0" points="25.9,11 21.1,11 21.1,6.1 18.4,6.1 18.4,11 13,11 14.8,13.7 18.4,13.7 18.4,18.5 
			21.1,18.5 21.1,13.7 25.9,13.7 		"/>
	</g>
	<g id="XMLID_244_">
		<path id="XMLID_212_" class="st1" d="M31.7,18.4V3.3h2.9v12.6h5l-0.5,2.5H31.7z"/>
		<path id="XMLID_214_" class="st1" d="M42.4,13.8c0,0.9,0.2,1.6,0.6,2c0.4,0.5,0.9,0.7,1.6,0.7c0.9,0,1.8-0.4,2.6-1.1l1,1.8
			c-1.2,1-2.5,1.6-3.9,1.6c-0.7,0-1.4-0.2-2-0.4c-0.6-0.3-1.1-0.7-1.5-1.1c-0.4-0.5-0.7-1.1-1-1.8c-0.2-0.7-0.4-1.5-0.4-2.4
			c0-1,0.1-1.9,0.3-2.5c0.2-0.7,0.5-1.3,1-1.9c0.4-0.5,0.9-0.9,1.4-1.1c0.5-0.3,1.1-0.4,1.8-0.4c0.6,0,1.1,0.1,1.7,0.3
			c0.5,0.2,0.9,0.5,1.3,0.9c0.5,0.5,0.8,1.2,1,2c0.2,0.8,0.3,1.8,0.3,2.9v0.7H42.4L42.4,13.8z M45.5,10.5c-0.1-0.3-0.2-0.5-0.3-0.7
			c-0.3-0.4-0.7-0.6-1.2-0.6c-0.5,0-0.9,0.2-1.2,0.6c-0.3,0.4-0.4,1-0.4,1.7v0.1h3.2v-0.1C45.6,11,45.6,10.7,45.5,10.5z"/>
		<path id="XMLID_217_" class="st1" d="M55.6,18.4c-0.3-0.2-0.5-0.5-0.6-0.8c-0.1,0.1-0.2,0.2-0.3,0.3c-0.1,0.1-0.2,0.2-0.3,0.3
			c-0.5,0.4-1.2,0.6-2.1,0.6c-1.1,0-2-0.3-2.6-0.9c-0.6-0.6-0.9-1.4-0.9-2.6c0-1.3,0.4-2.3,1.2-2.9c0.8-0.6,2.1-0.9,3.7-0.9h0.3
			c0.2,0,0.3,0,0.3,0v-0.5c0-0.6-0.1-1-0.2-1.2s-0.5-0.4-1-0.4c-0.4,0-0.9,0.1-1.4,0.3c-0.5,0.2-1,0.5-1.6,0.9L49,8.6
			c0.3-0.2,0.5-0.4,0.8-0.5c0.3-0.2,0.5-0.3,0.9-0.4c0.5-0.2,1-0.4,1.4-0.5s0.9-0.2,1.3-0.2c0.9,0,1.6,0.2,2.1,0.5
			c0.6,0.3,0.9,0.8,1.1,1.4c0.1,0.2,0.1,0.3,0.2,0.5c0.1,0.2,0.1,0.4,0.1,0.7v0.8l-0.1,3.7c0,0.3,0,0.6,0,0.8c0,0.2,0.1,0.4,0.1,0.6
			c0.1,0.2,0.2,0.4,0.3,0.5c0.1,0.2,0.3,0.4,0.5,0.5L56.4,19C56.1,18.8,55.9,18.6,55.6,18.4z M52.3,13.9c-0.4,0.2-0.5,0.7-0.5,1.3
			c0,0.4,0.1,0.8,0.3,1c0.2,0.3,0.5,0.4,0.8,0.4c0.5,0,1-0.3,1.4-0.7l0.1-2.4h-0.1C53.3,13.6,52.7,13.7,52.3,13.9z"/>
		<path id="XMLID_220_" class="st1" d="M63.6,9.6c-0.6,0-1.1,0.3-1.7,0.9v7.9h-2.7V11c0-0.8-0.1-1.4-0.1-2c-0.1-0.6-0.2-1-0.3-1.3
			L61.3,7c0.3,0.5,0.4,1,0.4,1.6c0.3-0.4,0.6-0.8,1-1.1c0.4-0.3,0.8-0.5,1.3-0.5c0.2,0,0.4,0,0.5,0.1c0.1,0.1,0.3,0.1,0.5,0.2
			l-0.7,2.6C64.1,9.7,63.9,9.6,63.6,9.6z"/>
		<path id="XMLID_222_" class="st1" d="M71.2,11.2c0-0.6-0.1-1.1-0.2-1.3c-0.1-0.2-0.4-0.3-0.7-0.3c-0.3,0-0.6,0.1-0.9,0.3
			c-0.3,0.2-0.7,0.4-1,0.7v7.8h-2.7v-8c0-1-0.1-1.9-0.4-2.6L67.7,7C68,7.5,68.1,8,68.1,8.4c0.2-0.2,0.4-0.3,0.6-0.4
			c0.2-0.2,0.4-0.3,0.6-0.4c0.3-0.2,0.6-0.3,0.9-0.4c0.3-0.1,0.6-0.1,0.9-0.1c0.6,0,1.1,0.2,1.6,0.5s0.8,0.7,0.9,1.1
			c0.2,0.4,0.2,0.9,0.2,1.6v8.1h-2.6L71.2,11.2L71.2,11.2z"/>
		<path id="XMLID_224_" class="st1" d="M78.6,5.5C78.3,5.8,77.9,6,77.4,6c-0.5,0-0.8-0.2-1.1-0.5c-0.3-0.4-0.5-0.8-0.5-1.3
			s0.2-0.9,0.5-1.3s0.7-0.5,1.2-0.5c0.5,0,0.8,0.2,1.1,0.5c0.3,0.4,0.5,0.8,0.5,1.3S78.9,5.1,78.6,5.5z M76.1,7.4L78.8,7v11.4h-2.7
			V7.4z"/>
		<path id="XMLID_227_" class="st1" d="M86.5,11.2c0-0.6-0.1-1.1-0.2-1.3c-0.1-0.2-0.4-0.3-0.7-0.3c-0.3,0-0.6,0.1-0.9,0.3
			s-0.7,0.4-1,0.7v7.8H81v-8c0-1-0.1-1.9-0.4-2.6L83,7c0.3,0.5,0.4,0.9,0.4,1.4c0.2-0.2,0.4-0.3,0.6-0.4c0.2-0.2,0.4-0.3,0.6-0.4
			c0.3-0.2,0.6-0.3,0.9-0.4c0.3-0.1,0.6-0.1,0.9-0.1c0.6,0,1.1,0.2,1.6,0.5c0.5,0.3,0.8,0.7,0.9,1.1c0.2,0.4,0.2,0.9,0.2,1.6v8.1
			h-2.6L86.5,11.2L86.5,11.2z"/>
		<path id="XMLID_229_" class="st1" d="M100.7,9.1c-0.3,0.2-0.6,0.2-1,0.2c-0.2,0-0.3,0-0.4,0s-0.2-0.1-0.3-0.1
			c0.2,0.3,0.4,0.5,0.5,0.8c0.1,0.3,0.2,0.6,0.2,1c0,0.5-0.1,0.9-0.3,1.3c-0.2,0.4-0.5,0.8-0.8,1c-0.4,0.3-0.7,0.5-1.2,0.7
			c-0.5,0.2-1,0.3-1.5,0.3h-0.3c-0.1,0-0.1,0-0.1,0c-0.4,0.2-0.6,0.3-0.8,0.5c-0.2,0.2-0.3,0.3-0.3,0.5c0,0.2,0.2,0.3,0.4,0.3h1.4
			c0.8,0,1.4,0.1,1.9,0.3c0.5,0.2,0.9,0.4,1.2,0.8c0.6,0.6,0.9,1.4,0.9,2.4c0,0.9-0.3,1.7-0.8,2.3c-0.5,0.5-1,0.9-1.8,1.1
			c-0.7,0.2-1.5,0.3-2.3,0.3c-0.7,0-1.4-0.1-2.1-0.3S92,22,91.6,21.5c-0.6-0.6-0.8-1.2-0.8-2c0-0.3,0.1-0.5,0.1-0.7
			c0.1-0.2,0.1-0.3,0.2-0.4h2.5c-0.1,0.2-0.1,0.3-0.1,0.4s0,0.2,0,0.4c0,0.9,0.6,1.4,1.9,1.4c0.4,0,0.7,0,0.9-0.1s0.5-0.2,0.7-0.3
			c0.2-0.2,0.4-0.3,0.5-0.5s0.2-0.4,0.2-0.7c0-0.5-0.2-0.9-0.5-1c-0.4-0.2-0.8-0.3-1.3-0.3h-1.1c-1.2-0.1-2-0.2-2.5-0.4
			c-0.3-0.1-0.4-0.3-0.6-0.5s-0.2-0.6-0.2-0.9c0-0.2,0-0.4,0.1-0.5c0.1-0.2,0.1-0.4,0.3-0.5c0.1-0.2,0.3-0.3,0.6-0.5
			c0.3-0.2,0.6-0.3,1-0.4c-1.4-0.4-2.2-1.4-2.2-3.1c0-0.6,0.1-1.1,0.3-1.6c0.2-0.5,0.5-0.9,0.9-1.2c0.4-0.3,0.8-0.6,1.3-0.8
			c0.5-0.2,1.1-0.3,1.8-0.3c0.3,0,0.6,0,0.9,0.1c0.3,0.1,0.6,0.1,1,0.2c0.3,0.1,0.5,0.2,0.7,0.2s0.4,0.1,0.6,0.1
			c0.4,0,0.7-0.1,1.1-0.3c0.4-0.2,0.7-0.4,1-0.7l1.1,1.9C101.2,8.8,100.9,9,100.7,9.1z M96.3,9.7c-0.3-0.3-0.7-0.4-1.2-0.4
			c-0.5,0-0.9,0.2-1.2,0.4c-0.3,0.3-0.4,0.7-0.4,1.2c0,0.6,0.2,1,0.4,1.2c0.3,0.2,0.7,0.4,1.1,0.4c1.1,0,1.7-0.5,1.7-1.6
			C96.7,10.3,96.6,10,96.3,9.7z"/>
		<path id="XMLID_232_" class="st1" d="M113.6,18.3c-0.6,0.2-1.3,0.4-2.1,0.4c-1.9,0-3.4-0.7-4.6-2.1c-1.1-1.3-1.7-3.2-1.7-5.4
			c0-1.9,0.3-3.4,0.9-4.7c0.6-1.1,1.3-2,2.2-2.6s2-0.9,3.1-0.9c0.7,0,1.3,0.1,2,0.3c0.6,0.2,1.1,0.5,1.6,0.9l-1.2,2.1
			c-0.7-0.6-1.4-0.8-2.2-0.8c-0.5,0-0.9,0.1-1.3,0.4c-0.4,0.3-0.8,0.6-1,0.9c-0.5,0.8-0.8,2.2-0.8,3.9c0,1,0.1,1.9,0.2,2.5
			c0.1,0.6,0.3,1.1,0.5,1.6c0.6,1.1,1.4,1.7,2.7,1.7c0.4,0,0.8-0.1,1.2-0.2c0.4-0.2,0.8-0.4,1.2-0.8l1.3,1.9
			C114.8,17.7,114.3,18.1,113.6,18.3z"/>
		<path id="XMLID_234_" class="st1" d="M118.9,18.7c-0.6,0-1-0.2-1.5-0.4c-0.5-0.3-0.7-0.6-0.9-1.1c-0.1-0.2-0.1-0.3-0.1-0.4
			s-0.1-0.3-0.1-0.5c0-0.2-0.1-0.4-0.1-0.7c0-0.3,0-0.6,0-1V6.4c0-0.7,0-1.3-0.1-1.9c0-0.5-0.1-1-0.1-1.5l2.7-0.7
			c0.1,0.3,0.1,0.7,0.1,1.1c0,0.4,0.1,1,0.1,1.8v8.7c0,0.5,0,0.9,0,1.1c0,0.3,0,0.5,0,0.7c0,0.2,0,0.3,0.1,0.4
			c0.1,0.1,0.1,0.2,0.1,0.3c0.1,0.2,0.3,0.3,0.5,0.3h0.2c0.1,0,0.1,0,0.2-0.1l0.5,1.8C119.9,18.6,119.4,18.7,118.9,18.7z"/>
		<path id="XMLID_236_" class="st1" d="M127.2,17.6c-0.7,0.7-1.6,1.1-2.7,1.1c-0.7,0-1.3-0.2-1.9-0.5c-0.6-0.4-0.9-0.8-1.1-1.3
			c-0.1-0.3-0.2-0.5-0.2-0.9c-0.1-0.3-0.1-0.8-0.1-1.3V7.6l2.6-0.5v7.1c0,0.5,0,0.9,0.1,1.2c0.1,0.3,0.1,0.5,0.2,0.7
			s0.2,0.3,0.4,0.4c0.2,0.1,0.4,0.2,0.6,0.2c0.2,0,0.3-0.1,0.5-0.1c0.2-0.1,0.4-0.2,0.5-0.3s0.3-0.2,0.4-0.4
			c0.1-0.2,0.2-0.3,0.3-0.4V7.6l2.6-0.6v8.5c0,0.4,0.1,0.7,0.2,1.1c0.1,0.4,0.3,0.7,0.5,0.9l-1.9,1.2
			C127.7,18.4,127.4,18.1,127.2,17.6z"/>
		<path id="XMLID_238_" class="st1" d="M139.9,15.6c-0.3,0.9-0.8,1.6-1.4,2.1c-0.4,0.3-0.7,0.5-1,0.7c-0.4,0.2-0.7,0.2-1.2,0.2
			c-0.5,0-0.9-0.1-1.3-0.3c-0.4-0.2-0.7-0.4-1-0.8c-0.1,0.2-0.1,0.4-0.1,0.4c-0.1,0.1-0.1,0.2-0.2,0.4h-2.4c0.1-0.2,0.1-0.3,0.2-0.4
			s0.1-0.3,0.1-0.4c0-0.2,0.1-0.4,0.1-0.6s0-0.6,0-0.9V5.7c0-0.7,0-1.2-0.1-1.7s-0.1-0.8-0.2-1.1l2.8-0.7c0.1,0.4,0.1,0.7,0.1,1
			c0.1,0.3,0,0.6,0,1v2.6c0,0.2,0,0.4,0,0.5c0,0.2,0,0.4-0.1,0.4c0.5-0.6,1.2-0.9,2.2-0.9c0.6,0,1.2,0.2,1.7,0.4
			c0.5,0.3,0.9,0.6,1.2,1.1c0.4,0.5,0.6,1.1,0.8,1.8c0.2,0.7,0.3,1.5,0.3,2.3C140.4,13.8,140.2,14.7,139.9,15.6z M137.4,11.5
			c0-0.3-0.1-0.5-0.1-0.7c-0.1-0.5-0.3-0.8-0.6-1.1c-0.3-0.2-0.6-0.4-0.9-0.4s-0.6,0.1-0.9,0.3c-0.3,0.2-0.5,0.4-0.6,0.6v5.1
			c0.2,0.2,0.4,0.3,0.6,0.5c0.2,0.2,0.5,0.2,0.9,0.2c0.7,0,1.1-0.3,1.3-0.9c0.1-0.3,0.2-0.6,0.3-1c0.1-0.4,0.1-0.9,0.1-1.6
			C137.4,12.2,137.4,11.8,137.4,11.5z"/>
		<path id="XMLID_241_" class="st1" d="M149.2,16.4c-0.2,0.5-0.5,0.9-0.9,1.2c-0.4,0.4-0.8,0.6-1.4,0.8c-0.5,0.2-1.1,0.3-1.8,0.3
			c-1.2,0-2.6-0.4-4.1-1.3l1-2.1c0.2,0.2,0.4,0.3,0.7,0.4c0.3,0.2,0.6,0.3,0.9,0.4c0.3,0.1,0.6,0.2,0.9,0.3c0.3,0.1,0.6,0.1,0.9,0.1
			c0.4,0,0.7-0.1,1-0.4c0.3-0.3,0.4-0.5,0.4-0.9c0-0.4-0.1-0.7-0.4-0.9c-0.3-0.2-0.7-0.4-1.2-0.5l-1.2-0.3c-0.4-0.1-0.7-0.2-1-0.4
			c-0.4-0.2-0.6-0.5-0.8-0.7c-0.2-0.2-0.3-0.6-0.4-0.9c-0.1-0.4-0.2-0.7-0.2-1.1c0-0.5,0.1-1,0.3-1.4c0.2-0.5,0.5-0.8,0.8-1.1
			c0.3-0.3,0.8-0.6,1.2-0.7c0.5-0.2,1-0.3,1.6-0.3c0.8,0,1.5,0.1,2.1,0.3c0.6,0.2,1.1,0.5,1.6,0.7l-0.9,2c-0.5-0.3-1-0.5-1.3-0.6
			c-0.4-0.1-0.8-0.2-1.2-0.2c-0.4,0-0.7,0.1-0.9,0.3c-0.2,0.2-0.4,0.5-0.4,0.8s0.1,0.5,0.3,0.7c0.2,0.2,0.5,0.3,1,0.5l1.2,0.4
			c0.6,0.2,1.1,0.4,1.3,0.6c0.3,0.2,0.5,0.4,0.7,0.7c0.4,0.5,0.6,1.1,0.6,1.9C149.5,15.5,149.4,16,149.2,16.4z"/>
	</g>
</g>
</svg>
