<?xml version="1.0" encoding="utf-8"?>
<!-- Generator: Adobe Illustrator 22.1.0, SVG Export Plug-In . SVG Version: 6.00 Build 0)  -->
<svg version="1.1" id="Layer_1" xmlns="http://www.w3.org/2000/svg" xmlns:xlink="http://www.w3.org/1999/xlink" x="0px" y="0px"
	 viewBox="0 0 129 24" style="enable-background:new 0 0 129 24;" xml:space="preserve">
<style type="text/css">
	.st0{fill:#240F6E;}
	.st1{fill:#00A4D9;}
</style>
<g id="Layer_3">
	<g id="XMLID_254_">
		<g id="XMLID_256_">
			<rect id="XMLID_259_" x="0.6" y="3.3" class="st0" width="4.2" height="15.3"/>
			<g id="XMLID_257_">
				<polygon id="XMLID_258_" class="st1" points="16.1,18.5 11.2,10.9 9.9,10.9 14.3,3.3 11,3.3 6.6,10.9 11.4,18.5 				"/>
			</g>
		</g>
		<polygon id="XMLID_255_" class="st0" points="25.9,11 21.1,11 21.1,6.1 18.4,6.1 18.4,11 13,11 14.8,13.7 18.4,13.7 18.4,18.5 
			21.1,18.5 21.1,13.7 25.9,13.7 		"/>
	</g>
	<g id="XMLID_243_">
		<path id="XMLID_186_" class="st1" d="M42.3,15.2c-0.5,1.2-1.3,2.2-2.3,2.7c-0.4,0.3-0.8,0.4-1.3,0.5c-0.4,0.2-0.9,0.2-1.4,0.2
			c-1,0-1.9-0.2-2.6-0.5c-0.7-0.4-1.3-0.9-1.9-1.7c-1.1-1.5-1.6-3.4-1.6-5.6c0-1.7,0.3-3.1,0.8-4.3c0.6-1.2,1.3-2.1,2.3-2.7
			c0.4-0.3,0.9-0.4,1.3-0.6c0.5-0.1,1-0.2,1.5-0.2c0.9,0,1.8,0.2,2.5,0.5s1.3,0.9,1.9,1.6c0.5,0.7,0.9,1.4,1.2,2.4
			c0.3,0.9,0.4,2,0.4,3.2C43.1,12.5,42.8,14,42.3,15.2z M39.8,8.8c-0.1-0.6-0.2-1-0.3-1.4c-0.1-0.2-0.2-0.4-0.3-0.6S39,6.4,38.8,6.2
			s-0.5-0.4-0.7-0.5c-0.3-0.1-0.6-0.2-1-0.2c-0.5,0-0.9,0.1-1.3,0.4s-0.7,0.6-0.9,1c-0.5,1-0.7,2.3-0.7,4.1c0,2.6,0.4,4.2,1.2,4.9
			c0.5,0.4,1,0.5,1.7,0.5c1,0,1.7-0.4,2.1-1.3c0.4-0.8,0.7-2.2,0.7-4.1C39.9,10.1,39.8,9.4,39.8,8.8z"/>
		<path id="XMLID_189_" class="st1" d="M50.2,11.2c0-0.6-0.1-1.1-0.2-1.3c-0.2-0.2-0.4-0.3-0.7-0.3s-0.6,0.1-0.9,0.3s-0.7,0.4-1,0.7
			v7.8h-2.7v-8c0-1-0.1-1.9-0.4-2.6L46.8,7c0.2,0.5,0.3,1,0.3,1.4c0.2-0.2,0.4-0.3,0.6-0.4c0.2-0.2,0.4-0.3,0.6-0.4
			c0.3-0.2,0.6-0.3,0.9-0.4c0.3-0.1,0.6-0.1,0.9-0.1c0.6,0,1.1,0.2,1.6,0.5s0.8,0.7,0.9,1.1c0.2,0.4,0.2,0.9,0.2,1.6v8.1h-2.6V11.2z
			"/>
		<path id="XMLID_191_" class="st1" d="M57.6,18.7c-0.6,0-1-0.2-1.5-0.4c-0.5-0.3-0.7-0.6-0.9-1.1c-0.1-0.2-0.1-0.3-0.1-0.4
			S55,16.5,55,16.3s-0.1-0.4-0.1-0.7s0-0.6,0-1V6.4c0-0.7,0-1.3-0.1-1.9c0-0.5-0.1-1-0.1-1.5l2.7-0.7c0.1,0.3,0.1,0.7,0.1,1.1
			s0.1,1,0.1,1.8v8.7c0,0.5,0,0.9,0,1.1c0,0.3,0,0.5,0,0.7s0,0.3,0.1,0.4s0.1,0.2,0.1,0.3c0.1,0.2,0.3,0.3,0.5,0.3h0.2
			c0.1,0,0.1,0,0.2-0.1l0.5,1.8C58.7,18.6,58.1,18.7,57.6,18.7z"/>
		<path id="XMLID_193_" class="st1" d="M62.6,5.5C62.3,5.8,61.9,6,61.4,6s-0.8-0.2-1.1-0.5c-0.3-0.4-0.5-0.8-0.5-1.3
			s0.2-0.9,0.5-1.3s0.7-0.5,1.2-0.5s0.8,0.2,1.1,0.5c0.3,0.4,0.5,0.8,0.5,1.3S62.9,5.1,62.6,5.5z M60.1,7.4L62.8,7v11.4h-2.7V7.4z"
			/>
		<path id="XMLID_196_" class="st1" d="M70.6,11.2c0-0.6-0.1-1.1-0.2-1.3c-0.2-0.2-0.4-0.3-0.7-0.3c-0.3,0-0.6,0.1-0.9,0.3
			s-0.7,0.4-1,0.7v7.8h-2.7v-8c0-1-0.1-1.9-0.4-2.6L67.1,7c0.3,0.5,0.4,0.9,0.4,1.4C67.7,8.3,67.8,8.1,68,8c0.2-0.2,0.4-0.3,0.6-0.4
			c0.3-0.2,0.6-0.3,0.9-0.4s0.6-0.1,0.9-0.1c0.6,0,1.1,0.2,1.6,0.5s0.8,0.7,0.9,1.1c0.2,0.4,0.2,0.9,0.2,1.6v8.1h-2.6L70.6,11.2
			L70.6,11.2z"/>
		<path id="XMLID_198_" class="st1" d="M77.8,13.8c0,0.9,0.2,1.6,0.6,2c0.4,0.5,0.9,0.7,1.6,0.7c0.9,0,1.8-0.4,2.6-1.1l1,1.8
			c-1.2,1-2.5,1.6-3.9,1.6c-0.7,0-1.4-0.2-2-0.4c-0.6-0.3-1.1-0.7-1.5-1.1c-0.4-0.5-0.7-1.1-1-1.8c-0.2-0.7-0.4-1.5-0.4-2.4
			c0-1,0.1-1.9,0.3-2.5c0.2-0.7,0.5-1.3,1-1.9c0.4-0.5,0.9-0.9,1.4-1.1c0.5-0.3,1.1-0.4,1.8-0.4c0.6,0,1.1,0.1,1.7,0.3
			c0.5,0.2,0.9,0.5,1.3,0.9c0.5,0.5,0.8,1.2,1,2s0.3,1.8,0.3,2.9V14h-5.8V13.8L77.8,13.8z M80.8,10.5c-0.1-0.3-0.2-0.5-0.3-0.7
			c-0.3-0.4-0.7-0.6-1.2-0.6s-0.9,0.2-1.2,0.6c-0.3,0.4-0.4,1-0.4,1.7v0.1h3.2v-0.1C80.9,11,80.9,10.7,80.8,10.5z"/>
		<path id="XMLID_201_" class="st1" d="M89.1,3.3H97l-0.4,2.5h-4.8v3.5h3.9v2.5h-3.9v4h5.3v2.6H89L89.1,3.3L89.1,3.3z"/>
		<path id="XMLID_203_" class="st1" d="M102.9,16.3c-0.1-0.1-0.1-0.2-0.2-0.4c-0.1-0.2-0.2-0.4-0.3-0.5s-0.2-0.3-0.3-0.5
			c-0.1-0.2-0.1-0.2-0.1-0.3c-0.1,0.2-0.2,0.4-0.4,0.8c-0.2,0.4-0.4,0.8-0.7,1.3l-0.9,1.6h-3.4l3.8-5.9l-2.8-4.7l2.8-0.8
			c0.2,0.4,0.4,0.7,0.5,0.9s0.3,0.5,0.4,0.7c0.1,0.2,0.2,0.4,0.3,0.6c0.1,0.2,0.2,0.4,0.3,0.6c0.1,0.1,0.1,0.3,0.2,0.4
			c0.1,0.2,0.1,0.3,0.2,0.4c0.1-0.1,0.1-0.3,0.3-0.7c0.2-0.4,0.4-0.9,0.6-1.5c0.1-0.2,0.2-0.4,0.3-0.6s0.2-0.3,0.2-0.4h3.2l-3.1,5.1
			l3.7,5.9H104L102.9,16.3z"/>
		<path id="XMLID_205_" class="st1" d="M110.9,18.7c-0.7,0-1.3-0.2-1.8-0.5s-0.8-0.7-1-1.2c-0.1-0.1-0.1-0.2-0.1-0.3
			c-0.1-0.1-0.1-0.2-0.1-0.3s0-0.3,0-0.4c0-0.2,0-0.4,0-0.6V9.3h-1v-2h1c0-0.6,0-1,0-1.4s0.1-0.8,0.1-1.2l2.7-0.7
			c-0.1,0.5-0.1,1-0.1,1.7c-0.1,0.6-0.1,1.1-0.1,1.7h2.4l-0.7,2h-1.7v5.5c0,0.4,0,0.6,0.1,0.9s0.1,0.4,0.2,0.6s0.2,0.2,0.4,0.3
			s0.4,0.1,0.6,0.1c0.1,0,0.3,0,0.4-0.1c0.2-0.1,0.3-0.1,0.6-0.2l0.4,1.8C112.3,18.5,111.6,18.7,110.9,18.7z"/>
		<path id="XMLID_207_" class="st1" d="M118.6,9.6c-0.6,0-1.1,0.3-1.7,0.9v7.9h-2.7V11c0-0.8-0.1-1.4-0.1-2s-0.2-1-0.3-1.3l2.4-0.7
			c0.3,0.5,0.4,1,0.4,1.6c0.3-0.4,0.6-0.8,1-1.1c0.4-0.3,0.8-0.5,1.3-0.5c0.2,0,0.4,0,0.5,0.1s0.3,0.1,0.5,0.2l-0.7,2.6
			C119.2,9.7,118.9,9.6,118.6,9.6z"/>
		<path id="XMLID_209_" class="st1" d="M126.6,18.4c-0.3-0.2-0.5-0.5-0.6-0.8c-0.1,0.1-0.2,0.2-0.3,0.3c-0.1,0.1-0.2,0.2-0.3,0.3
			c-0.5,0.4-1.2,0.6-2.1,0.6c-1.1,0-2-0.3-2.6-0.9s-0.9-1.4-0.9-2.6c0-1.3,0.4-2.3,1.2-2.9c0.8-0.6,2.1-0.9,3.7-0.9h0.3
			c0.2,0,0.3,0,0.3,0V11c0-0.6-0.1-1-0.2-1.2s-0.5-0.4-1-0.4c-0.4,0-0.9,0.1-1.4,0.3s-1,0.5-1.6,0.9l-1.1-2c0.3-0.2,0.5-0.4,0.8-0.5
			c0.3-0.2,0.5-0.3,0.9-0.4c0.5-0.2,1-0.4,1.4-0.5c0.5-0.1,0.9-0.2,1.3-0.2c0.9,0,1.6,0.2,2.1,0.5c0.6,0.3,0.9,0.8,1.1,1.4
			c0.1,0.2,0.1,0.3,0.2,0.5s0.1,0.4,0.1,0.7v0.8l-0.1,3.7c0,0.3,0,0.6,0,0.8s0.1,0.4,0.1,0.6c0.1,0.2,0.2,0.4,0.3,0.5
			c0.1,0.2,0.3,0.4,0.5,0.5l-1.4,1.8C127.1,18.8,126.8,18.6,126.6,18.4z M123.3,13.9c-0.4,0.2-0.5,0.7-0.5,1.3c0,0.4,0.1,0.8,0.3,1
			c0.2,0.3,0.5,0.4,0.8,0.4c0.5,0,1-0.3,1.4-0.7l0.1-2.4h-0.2C124.2,13.6,123.6,13.7,123.3,13.9z"/>
	</g>
</g>
</svg>
