<?xml version="1.0" encoding="UTF-8" standalone="no"?><!DOCTYPE svg PUBLIC "-//W3C//DTD SVG 1.1//EN" "http://www.w3.org/Graphics/SVG/1.1/DTD/svg11.dtd"><svg width="100%" height="100%" viewBox="0 0 60 60" version="1.1" xmlns="http://www.w3.org/2000/svg" xmlns:xlink="http://www.w3.org/1999/xlink" xml:space="preserve" style="fill-rule:evenodd;clip-rule:evenodd;stroke-linejoin:round;stroke-miterlimit:1.41421;"><g id="Layer_2"><g><circle cx="14.443" cy="15.654" r="2.054" style="fill:#fff;"/><path d="M17.072,5.723c0.765,2.706 5.099,18.041 5.976,20.929l0.17,0.556l-0.581,0l-6.22,0l0,6.674l-0.431,0l-11.041,0l-0.148,0.934l-0.005,0.034l-0.002,0.003c-0.008,0.072 -0.029,0.284 -0.029,0.596c0,1.778 0.739,7.779 10.254,10.354l0.343,0.092l-0.026,0.353c-0.04,0.569 -0.286,3.436 -1.11,4.169l-0.061,0.058l-0.052,0.058c-0.008,0.009 -1.465,1.701 -4.549,2.167l-0.031,0.005l-0.032,0l-8.664,0l0,2.217l8.899,0l0.075,-0.012c3.447,-0.492 5.397,-2.312 5.869,-2.806l-0.005,-0.005l0.159,-0.166l0.007,0.009c1.303,-1.338 1.77,-4.398 1.77,-6.856l0,-0.893l-0.874,-0.191c-7.549,-1.641 -9.295,-5.339 -9.663,-7.398l-0.091,-0.506l11.655,0l0,-6.245l0,-0.431l7.583,0l-7.02,-24.344l-2.125,0.645Z" style="fill:#fff;fill-rule:nonzero;"/><path d="M54.718,19.228c-2.865,-2.866 -6.666,-4.443 -10.719,-4.443c-4.051,0 -7.851,1.578 -10.717,4.443c-5.538,5.539 -5.923,14.403 -0.955,20.384c-0.487,0.982 -1.268,2.123 -2.429,2.692c-0.558,0.277 -0.872,0.873 -0.776,1.488c0.097,0.615 0.571,1.095 1.186,1.191c0.289,0.046 0.699,0.091 1.199,0.091c1.34,0 3.315,-0.314 5.333,-1.769c2.251,1.211 4.712,1.8 7.155,1.8c3.922,0 7.807,-1.518 10.731,-4.442c2.865,-2.866 4.441,-6.666 4.441,-10.717c0,-4.051 -1.584,-7.853 -4.449,-10.718Zm-1.226,20.212c-4.325,4.327 -11.025,5.186 -16.293,2.09c-0.347,-0.205 -0.777,-0.142 -1.052,0.133c-0.025,0.014 -0.051,0.033 -0.07,0.052c-1.738,1.346 -3.442,1.627 -4.571,1.627l-0.005,0c1.301,-0.949 2.121,-2.358 2.601,-3.455c0.078,-0.185 0.09,-0.377 0.045,-0.556c-0.019,-0.174 -0.089,-0.347 -0.211,-0.489c-4.693,-5.3 -4.449,-13.377 0.565,-18.39c5.237,-5.237 13.756,-5.237 18.987,0c5.243,5.238 5.243,13.75 0.004,18.988Z" style="fill:#fff;fill-rule:nonzero;"/></g><g><path d="M40.239,35.905c0.275,0 0.54,-0.021 0.798,-0.062c0.255,-0.041 0.459,-0.083 0.608,-0.125l0,1.19c-0.169,0.082 -0.417,0.149 -0.746,0.2c-0.327,0.054 -0.623,0.08 -0.885,0.08c-1.986,0 -2.98,-1.045 -2.98,-3.138l0,-6.11l-1.47,0l0,-0.748l1.47,-0.646l0.656,-2.193l0.9,0l0,2.379l2.98,0l0,1.208l-2.98,0l0,6.043c0,0.619 0.147,1.094 0.441,1.426c0.293,0.33 0.697,0.496 1.208,0.496Z" style="fill:#fff;fill-rule:nonzero;"/><path d="M50.724,37l0,-6.642c0,-0.838 -0.191,-1.461 -0.572,-1.875c-0.38,-0.411 -0.976,-0.618 -1.788,-0.618c-1.081,0 -1.87,0.295 -2.367,0.883c-0.496,0.585 -0.745,1.547 -0.745,2.885l0,5.367l-1.555,0l0,-14.578l1.555,0l0,4.412c0,0.531 -0.025,0.972 -0.075,1.322l0.094,0c0.306,-0.493 0.742,-0.883 1.306,-1.167c0.565,-0.283 1.21,-0.426 1.935,-0.426c1.255,0 2.198,0.299 2.825,0.895c0.628,0.597 0.942,1.545 0.942,2.843l0,6.699l-1.555,0Z" style="fill:#fff;fill-rule:nonzero;"/></g></g></svg>