<?xml version="1.0" encoding="utf-8"?>
<!-- Generator: Adobe Illustrator 22.1.0, SVG Export Plug-In . SVG Version: 6.00 Build 0)  -->
<svg version="1.1" id="Layer_1" xmlns="http://www.w3.org/2000/svg" xmlns:xlink="http://www.w3.org/1999/xlink" x="0px" y="0px"
	 viewBox="0 0 84 24" style="enable-background:new 0 0 84 24;" xml:space="preserve">
<style type="text/css">
	.st0{fill:#00A4D9;}
	.st1{fill:#240F6E;}
</style>
<g id="Layer_1_1_">
	<g id="XMLID_118_">
		<path id="XMLID_126_" class="st0" d="M42.3,15.1c-0.5,1.2-1.3,2.2-2.3,2.7c-0.4,0.3-0.8,0.4-1.3,0.5c-0.4,0.2-0.9,0.2-1.4,0.2
			c-1,0-1.9-0.2-2.6-0.5c-0.7-0.4-1.3-0.9-1.9-1.7c-1.1-1.5-1.6-3.4-1.6-5.6c0-1.7,0.3-3.1,0.8-4.3c0.6-1.2,1.3-2.1,2.3-2.7
			c0.4-0.3,0.9-0.4,1.3-0.6c0.5-0.1,1-0.2,1.5-0.2c0.9,0,1.8,0.2,2.5,0.5s1.3,0.9,1.9,1.6c0.5,0.7,0.9,1.4,1.2,2.4
			c0.3,0.9,0.4,2,0.4,3.2C43.1,12.4,42.8,13.9,42.3,15.1z M39.8,8.8c-0.1-0.6-0.2-1-0.3-1.4c-0.1-0.2-0.2-0.4-0.3-0.6
			S39,6.3,38.8,6.1c-0.2-0.2-0.5-0.4-0.7-0.5c-0.3-0.1-0.6-0.2-1-0.2c-0.5,0-0.9,0.1-1.3,0.4s-0.7,0.6-0.9,1c-0.5,1-0.7,2.3-0.7,4.1
			c0,2.6,0.4,4.2,1.2,4.9c0.5,0.4,1,0.5,1.7,0.5c1,0,1.7-0.4,2.1-1.3c0.4-0.8,0.7-2.2,0.7-4.1C39.9,10,39.8,9.3,39.8,8.8z"/>
		<path id="XMLID_129_" class="st0" d="M50.2,11.1c0-0.6-0.1-1.1-0.2-1.3c-0.2-0.2-0.4-0.3-0.7-0.3s-0.6,0.1-0.9,0.3
			c-0.3,0.2-0.7,0.4-1,0.7v7.8h-2.7v-8c0-1-0.1-1.9-0.4-2.6L46.8,7c0.3,0.5,0.4,0.9,0.4,1.4c0.2-0.2,0.4-0.3,0.6-0.4
			c0.2-0.2,0.4-0.3,0.6-0.4c0.3-0.2,0.6-0.3,0.9-0.4s0.6-0.1,0.9-0.1c0.6,0,1.1,0.2,1.6,0.5s0.8,0.7,0.9,1.1
			c0.2,0.4,0.2,0.9,0.2,1.6v8.1h-2.6v-7.3H50.2z"/>
		<path id="XMLID_131_" class="st0" d="M57.6,18.6c-0.6,0-1-0.2-1.5-0.4c-0.5-0.3-0.7-0.6-0.9-1.1c-0.1-0.2-0.1-0.3-0.1-0.4
			c0-0.2-0.1-0.3-0.1-0.5s-0.1-0.4-0.1-0.7s0-0.6,0-1V6.3c0-0.7,0-1.3-0.1-1.9c0-0.5-0.1-1-0.1-1.5l2.7-0.7c0.1,0.3,0.1,0.7,0.1,1.1
			s0.1,1,0.1,1.8v8.7c0,0.5,0,0.9,0,1.1c0,0.3,0,0.5,0,0.7s0,0.3,0.1,0.4c0.1,0.1,0.1,0.2,0.1,0.3c0.1,0.2,0.3,0.3,0.5,0.3h0.2
			c0.1,0,0.1,0,0.2-0.1l0.5,1.8C58.7,18.5,58.1,18.6,57.6,18.6z"/>
		<path id="XMLID_133_" class="st0" d="M62.6,5.4c-0.3,0.4-0.7,0.5-1.2,0.5s-0.8-0.2-1.1-0.5C60,5,59.8,4.6,59.8,4.1
			s0.2-0.9,0.5-1.3s0.7-0.5,1.2-0.5s0.8,0.2,1.1,0.5c0.3,0.4,0.5,0.8,0.5,1.3S62.9,5.1,62.6,5.4z M60.1,7.4l2.7-0.5v11.4h-2.7V7.4z"
			/>
		<path id="XMLID_136_" class="st0" d="M70.6,11.1c0-0.6-0.1-1.1-0.2-1.3c-0.2-0.2-0.4-0.3-0.7-0.3c-0.3,0-0.6,0.1-0.9,0.3
			s-0.7,0.4-1,0.7v7.8h-2.7v-8c0-1-0.1-1.9-0.4-2.6L67.1,7c0.3,0.5,0.4,0.9,0.4,1.4c0.2-0.2,0.4-0.3,0.6-0.4
			c0.2-0.2,0.4-0.3,0.6-0.4c0.3-0.2,0.6-0.3,0.9-0.4s0.6-0.1,0.9-0.1c0.6,0,1.1,0.2,1.6,0.5s0.8,0.7,0.9,1.1
			c0.2,0.4,0.2,0.9,0.2,1.6v8.1h-2.6V11.1L70.6,11.1z"/>
		<path id="XMLID_138_" class="st0" d="M77.8,13.7c0,0.9,0.2,1.6,0.6,2c0.4,0.5,0.9,0.7,1.6,0.7c0.9,0,1.8-0.4,2.6-1.1l1,1.8
			c-1.2,1-2.5,1.6-3.9,1.6c-0.7,0-1.4-0.2-2-0.4c-0.6-0.3-1.1-0.7-1.5-1.1c-0.4-0.5-0.7-1.1-1-1.8c-0.2-0.7-0.4-1.5-0.4-2.4
			c0-1,0.1-1.9,0.3-2.5c0.2-0.7,0.5-1.3,1-1.9c0.5-0.6,0.9-1,1.5-1.2C78.1,7.1,78.7,7,79.4,7c0.6,0,1.1,0.1,1.7,0.3
			c0.5,0.2,0.9,0.5,1.3,0.9c0.5,0.5,0.8,1.2,1,2s0.3,1.8,0.3,2.9v0.7h-5.9V13.7L77.8,13.7z M80.8,10.4c-0.1-0.3-0.2-0.5-0.3-0.7
			c-0.3-0.4-0.7-0.6-1.2-0.6s-0.9,0.2-1.2,0.6s-0.4,1-0.4,1.7v0.1h3.2v-0.1C80.9,10.9,80.9,10.6,80.8,10.4z"/>
	</g>
	<g id="XMLID_119_">
		<g id="XMLID_121_">
			<rect id="XMLID_124_" x="0.6" y="3.2" class="st1" width="4.2" height="15.3"/>
			<g id="XMLID_122_">
				<polygon id="XMLID_123_" class="st0" points="16.1,18.4 11.2,10.8 9.9,10.8 14.3,3.2 11,3.2 6.6,10.8 11.4,18.4 				"/>
			</g>
		</g>
		<polygon id="XMLID_120_" class="st1" points="25.9,10.9 21.1,10.9 21.1,6 18.4,6 18.4,10.9 13,10.9 14.8,13.6 18.4,13.6 
			18.4,18.4 21.1,18.4 21.1,13.6 25.9,13.6 		"/>
	</g>
</g>
</svg>
