<?xml version="1.0" encoding="UTF-8" standalone="no"?><!DOCTYPE svg PUBLIC "-//W3C//DTD SVG 1.1//EN" "http://www.w3.org/Graphics/SVG/1.1/DTD/svg11.dtd"><svg width="100%" height="100%" viewBox="0 0 60 60" version="1.1" xmlns="http://www.w3.org/2000/svg" xmlns:xlink="http://www.w3.org/1999/xlink" xml:space="preserve" style="fill-rule:evenodd;clip-rule:evenodd;stroke-linejoin:round;stroke-miterlimit:1.41421;"><g id="Layer_1"><path d="M28.578,10.981l-11.737,29.81l3.493,0l3.654,-9.443l11.9,0l3.696,9.443l3.574,0l-11.676,-29.81l-2.904,0Zm-3.37,17.261l3.492,-9.199c0.555,-1.557 0.982,-2.985 1.279,-4.285c0.474,1.692 0.934,3.12 1.38,4.285l3.454,9.199l-9.605,0Z" style="fill:#fff;fill-rule:nonzero;"/><path d="M9.174,53.272c-0.493,0 -0.891,0.399 -0.891,0.89c0,0.492 0.399,0.891 0.891,0.891l44.204,0c0.492,0 0.89,-0.4 0.89,-0.891c0,-0.492 -0.399,-0.89 -0.89,-0.89l-44.204,0Z" style="fill:#fff;fill-rule:nonzero;"/><path d="M55.278,50.417l0,-44.723c0,-2.635 -2.227,-4.861 -4.861,-4.861l-40.834,0c-2.635,0 -4.86,2.226 -4.86,4.861l0,49.584c0,2.144 1.743,3.889 3.888,3.889l45.694,0c0.537,0 0.973,-0.436 0.973,-0.973c0,-0.537 -0.436,-0.972 -0.973,-0.972l-45.694,0c-1.073,0 -1.944,-0.873 -1.944,-1.945l0,-0.972c0,-2.744 2.433,-2.911 2.921,-2.917l44.717,0c0.538,0 0.973,-0.435 0.973,-0.971Zm-13.363,-47.64l5.833,0l0,10.642l-2.229,-2.229c-0.381,-0.381 -0.995,-0.381 -1.375,0l-2.229,2.229l0,-10.642l0,0Zm11.418,46.667l-43.916,0c-0.22,0 -0.423,-0.014 -0.588,0.052l-0.218,0.047c-0.628,0.123 -1.319,0.37 -1.944,0.792l0,-44.641c0,-1.553 1.363,-2.917 2.916,-2.917l30.388,0l0,12.988c0,0.394 0.237,0.748 0.6,0.898c0.121,0.051 0.247,0.075 0.372,0.075c0.253,0 0.502,-0.099 0.687,-0.285l3.202,-3.201l3.201,3.201c0.28,0.279 0.696,0.36 1.06,0.21c0.363,-0.15 0.6,-0.504 0.6,-0.897l0,-12.989l0.724,0c1.553,0 2.916,1.364 2.916,2.917l0,43.75Z" style="fill:#fff;fill-rule:nonzero;"/></g></svg>